<svg xmlns="http://www.w3.org/2000/svg" viewBox="0 0 24 24" version="1.1" id="Remove-Bold--Streamline-Ultimate.svg">
	<path d="M5.232 0.013968C4.64952 0.08133599999999999 4.194503999999999 0.210048 3.724752 0.44040000000000007C3.1344480000000003 0.72984 2.966664 0.867504 1.895424 1.9412639999999999C0.8796960000000001 2.959368 0.7691279999999999 3.092184 0.49454400000000004 3.624C0.264936 4.068696 0.13497599999999998 4.456824 0.044448 4.968C0.002064 5.207352 0.002064 6.048648 0.044448 6.288C0.17676 7.0351680000000005 0.446784 7.673328 0.872112 8.244C0.95964 8.361456 1.7055120000000001 9.12792 2.793 10.217928L4.5708 11.999856000000001 2.79312 13.781927999999999C1.710096 14.867664 0.959496 15.639024 0.8722320000000001 15.756C0.526536 16.219416 0.270384 16.756056 0.133344 17.304000000000002C0.030432 17.71548 0.012576 17.873448 0.012576 18.372C0.012576 18.870552 0.030432 19.02852 0.133344 19.44C0.270384 19.987944000000002 0.526536 20.524608 0.8722320000000001 20.988C1.057104 21.2358 2.736168 22.915584000000003 2.9885040000000003 23.10516C3.543672 23.522256000000002 4.186008 23.805312 4.8649439999999995 23.932056C5.238168 24.001728 5.959872 24.008568 6.324 23.945904C7.026384 23.825015999999998 7.685304 23.544287999999998 8.244 23.127888000000002C8.361456 23.04036 9.12792 22.294488 10.217928 21.207L11.999856000000001 19.429199999999998 13.781927999999999 21.207C14.914319999999998 22.33668 15.632064000000002 23.03448 15.750672000000002 23.121072C16.359984 23.565863999999998 17.020104 23.843424 17.736 23.955792000000002C18.032472 24.002328 18.768792 23.996688 19.068 23.945591999999998C19.882464000000002 23.806488 20.653776 23.439936 21.241848 22.912488C21.627984 22.566192 22.976112 21.190152 23.127312 20.988C23.583168 20.378591999999998 23.863464 19.686768 23.980104 18.883224000000002C24.017592 18.624912000000002 24.031896 18.022296 24.001272 17.991672C23.987376 17.977776 23.976 17.931144 23.976 17.88804C23.976 17.84496 23.954568 17.699184 23.928384 17.564111999999998C23.801424 16.909152 23.529528000000003 16.294848 23.128104 15.756C23.040432000000003 15.638304 22.297008 14.874432 21.207072 13.782143999999999L19.429056 12.000312 21.194784 10.230144C22.244808 9.177504 23.019144 8.381976 23.10516 8.267496C23.536368 7.69356 23.819136 7.046976000000001 23.940504 6.357384000000001C23.959992 6.246624000000001 23.975952000000003 6.116136 23.975976000000003 6.067416C23.975976000000003 6.018696 23.986800000000002 5.972160000000001 24 5.964C24.014208 5.955216 24.024 5.80728 24.024 5.601168C24.024 5.37528 24.015576 5.258376 24 5.268C23.9856 5.276904 23.975976000000003 5.246232 23.975976000000003 5.191416C23.975856 4.870584 23.792472 4.210512 23.577192 3.7560000000000002C23.303976000000002 3.17916 23.128728 2.96364 22.082520000000002 1.91772C21.061176 0.89664 20.87328 0.742224 20.303328 0.455664C19.94304 0.27451200000000003 19.481736 0.124296 19.074528 0.055536C18.735024 -0.0018 18.008976 -0.0018 17.669472 0.055536C16.984920000000002 0.17114400000000002 16.335144 0.450192 15.744624 0.882216C15.634392 0.962856 14.869536 1.7072880000000001 13.782 2.792496L12 4.570656 10.218 2.792496C9.130464 1.7072880000000001 8.365608 0.962856 8.255376 0.882216C7.670304000000001 0.454176 7.048104 0.18408 6.357384000000001 0.058272C6.165024 0.023232 5.409216 -0.006528000000000001 5.232 0.013968M5.1033599999999995 1.5503760000000002C4.763688 1.611744 4.342728 1.782768 4.045104 1.980312C3.826776 2.125248 3.548712 2.384136 2.831136 3.1106160000000003C2.323152 3.624912 2.11152 3.85668 2.011752 4.008C1.6569600000000002 4.54596 1.512 5.015904 1.512 5.628C1.512 6.278447999999999 1.6964400000000002 6.835296 2.0843279999999997 7.356C2.14332 7.4352 3.1119359999999996 8.4234 4.236816 9.552C6.500808 11.823504 6.371952 11.67576 6.371952 12C6.371952 12.323952000000002 6.502656000000001 12.17424 4.213752 14.472C2.047344 16.64676 2.00508 16.692912 1.802208 17.105376000000003C1.597848 17.520792 1.512 17.895504 1.512 18.372C1.512 18.982272000000002 1.672152 19.498896 2.0200080000000002 20.010624C2.1824640000000004 20.24964 3.6482159999999997 21.724512 3.9260400000000004 21.92856C4.433136 22.300944 5.0022 22.488 5.628 22.488C6.225552 22.488 6.76236 22.320888 7.272 21.976224000000002C7.404888 21.886344 7.995264000000001 21.313272 9.528 19.78632C11.825832 17.497152 11.675928 17.628048 12 17.628048C12.323952000000002 17.628048 12.17424 17.49732 14.472 19.786344C16.201656 21.509424 16.582032 21.876816 16.752 21.988608C17.279472 22.33548 17.774231999999998 22.488 18.372 22.488C18.969072 22.488 19.46208 22.336199999999998 19.992 21.989208C20.151696 21.88464 20.371176 21.680592 21.0024 21.049824C21.961584000000002 20.091336000000002 22.065984 19.962216 22.270536 19.481328C22.670328 18.541392000000002 22.537176 17.474520000000002 21.916392000000002 16.644000000000002C21.857208 16.5648 20.888328 15.5766 19.763376 14.448C17.499144 12.176472 17.628048 12.32424 17.628048 12C17.628048 11.676216 17.500848 11.822088 19.752072000000002 9.564C21.072984 8.239056 21.835536 7.456392 21.927599999999998 7.331136C22.307064 6.814704000000001 22.488 6.26484 22.488 5.628C22.488 5.155704 22.402632 4.779264 22.202280000000002 4.368C22.004328 3.96168 21.841992 3.7717680000000002 20.889384 2.831976C20.172864 2.1251040000000003 19.99776 1.981848 19.62 1.7934480000000002C19.253376000000003 1.6106159999999998 18.81612 1.512 18.372 1.512C17.77512 1.512 17.282736 1.66356 16.752 2.010624C16.580832 2.1225359999999998 16.213872 2.476992 14.472 4.212791999999999C12.174312 6.5024880000000005 12.32376 6.371952 12 6.371952C11.67624 6.371952 11.825688000000001 6.5024880000000005 9.528 4.212791999999999C7.337736 2.030136 7.3236479999999995 2.017272 6.888 1.79916C6.672960000000001 1.691496 6.362520000000001 1.589304 6.1228560000000005 1.54728C5.871816 1.50324 5.355576 1.504824 5.1033599999999995 1.5503760000000002M0.009600000000000001 5.628C0.009624 5.8260000000000005 0.013344000000000002 5.903808 0.017856 5.800896000000001C0.022368000000000002 5.698008 0.022344000000000003 5.536008 0.017808 5.440896C0.013248000000000001 5.345808 0.009576000000000001 5.43 0.009600000000000001 5.628M0.009600000000000001 18.372C0.009624 18.57 0.013344000000000002 18.647807999999998 0.017856 18.544895999999998C0.022368000000000002 18.442008 0.022344000000000003 18.280008000000002 0.017808 18.184896C0.013248000000000001 18.089807999999998 0.009576000000000001 18.174 0.009600000000000001 18.372" stroke="none" fill="#000000" fill-rule="evenodd"></path>
</svg>